<mxfile host="app.diagrams.net" agent="Mozilla/5.0 (Windows NT 10.0; Win64; x64) AppleWebKit/537.36 (KHTML, like Gecko) Chrome/132.0.0.0 Safari/537.36 OPR/117.0.0.0" version="26.2.10">
  <diagram name="Page-1" id="gG-aDCFRIgRXTEr3k5Xv">
    <mxGraphModel dx="2533" dy="774" grid="1" gridSize="10" guides="1" tooltips="1" connect="1" arrows="1" fold="1" page="1" pageScale="1" pageWidth="1100" pageHeight="850" math="0" shadow="0">
      <root>
        <mxCell id="0" />
        <mxCell id="1" parent="0" />
        <mxCell id="kMy3-wZcHd9l3VL2baU1-37" style="edgeStyle=orthogonalEdgeStyle;rounded=0;orthogonalLoop=1;jettySize=auto;html=1;exitX=0;exitY=0;exitDx=520;exitDy=167;exitPerimeter=0;entryX=0.75;entryY=0;entryDx=0;entryDy=0;" parent="1" source="kMy3-wZcHd9l3VL2baU1-1" target="kMy3-wZcHd9l3VL2baU1-32" edge="1">
          <mxGeometry relative="1" as="geometry" />
        </mxCell>
        <mxCell id="kMy3-wZcHd9l3VL2baU1-1" value="" style="shape=folder;fontStyle=1;spacingTop=10;tabWidth=40;tabHeight=14;tabPosition=left;html=1;whiteSpace=wrap;" parent="1" vertex="1">
          <mxGeometry x="40" y="40" width="520" height="320" as="geometry" />
        </mxCell>
        <mxCell id="kMy3-wZcHd9l3VL2baU1-2" value="&lt;font style=&quot;font-size: 14px;&quot;&gt;&lt;b&gt;Graphical User Interface&lt;/b&gt;&lt;/font&gt;" style="text;html=1;align=center;verticalAlign=middle;whiteSpace=wrap;rounded=0;" parent="1" vertex="1">
          <mxGeometry x="50" y="60" width="180" height="30" as="geometry" />
        </mxCell>
        <mxCell id="kMy3-wZcHd9l3VL2baU1-4" value="" style="shape=folder;fontStyle=1;spacingTop=10;tabWidth=40;tabHeight=14;tabPosition=left;html=1;whiteSpace=wrap;" parent="1" vertex="1">
          <mxGeometry x="50" y="100" width="340" height="240" as="geometry" />
        </mxCell>
        <mxCell id="kMy3-wZcHd9l3VL2baU1-11" value="&lt;font style=&quot;font-size: 14px;&quot;&gt;Controller&lt;/font&gt;" style="swimlane;fontStyle=0;childLayout=stackLayout;horizontal=1;startSize=26;fillColor=none;horizontalStack=0;resizeParent=1;resizeParentMax=0;resizeLast=0;collapsible=1;marginBottom=0;whiteSpace=wrap;html=1;" parent="1" vertex="1">
          <mxGeometry x="410" y="120" width="140" height="52" as="geometry" />
        </mxCell>
        <mxCell id="kMy3-wZcHd9l3VL2baU1-15" value="&lt;font style=&quot;font-size: 14px;&quot;&gt;&lt;b&gt;View&lt;/b&gt;&lt;/font&gt;" style="text;html=1;align=center;verticalAlign=middle;whiteSpace=wrap;rounded=0;" parent="1" vertex="1">
          <mxGeometry x="-10" y="120" width="180" height="30" as="geometry" />
        </mxCell>
        <mxCell id="kMy3-wZcHd9l3VL2baU1-16" value="&lt;font style=&quot;font-size: 14px;&quot;&gt;QueuePanel&lt;/font&gt;" style="swimlane;fontStyle=0;childLayout=stackLayout;horizontal=1;startSize=26;fillColor=none;horizontalStack=0;resizeParent=1;resizeParentMax=0;resizeLast=0;collapsible=1;marginBottom=0;whiteSpace=wrap;html=1;" parent="1" vertex="1">
          <mxGeometry x="60" y="150" width="140" height="52" as="geometry" />
        </mxCell>
        <mxCell id="kMy3-wZcHd9l3VL2baU1-17" value="&lt;font style=&quot;font-size: 14px;&quot;&gt;SimulationFrame&lt;/font&gt;" style="swimlane;fontStyle=0;childLayout=stackLayout;horizontal=1;startSize=26;fillColor=none;horizontalStack=0;resizeParent=1;resizeParentMax=0;resizeLast=0;collapsible=1;marginBottom=0;whiteSpace=wrap;html=1;" parent="1" vertex="1">
          <mxGeometry x="230" y="150" width="140" height="52" as="geometry" />
        </mxCell>
        <mxCell id="kMy3-wZcHd9l3VL2baU1-18" value="&lt;font style=&quot;font-size: 14px;&quot;&gt;SimulationSetupFrame&lt;/font&gt;" style="swimlane;fontStyle=0;childLayout=stackLayout;horizontal=1;startSize=26;fillColor=none;horizontalStack=0;resizeParent=1;resizeParentMax=0;resizeLast=0;collapsible=1;marginBottom=0;whiteSpace=wrap;html=1;" parent="1" vertex="1">
          <mxGeometry x="130" y="230" width="150" height="60" as="geometry" />
        </mxCell>
        <mxCell id="kMy3-wZcHd9l3VL2baU1-19" value="" style="shape=folder;fontStyle=1;spacingTop=10;tabWidth=40;tabHeight=14;tabPosition=left;html=1;whiteSpace=wrap;" parent="1" vertex="1">
          <mxGeometry x="40" y="480" width="520" height="320" as="geometry" />
        </mxCell>
        <mxCell id="kMy3-wZcHd9l3VL2baU1-20" value="&lt;span style=&quot;font-size: 14px;&quot;&gt;&lt;b&gt;Logic&lt;/b&gt;&lt;/span&gt;" style="text;html=1;align=center;verticalAlign=middle;whiteSpace=wrap;rounded=0;" parent="1" vertex="1">
          <mxGeometry x="-10" y="500" width="180" height="30" as="geometry" />
        </mxCell>
        <mxCell id="kMy3-wZcHd9l3VL2baU1-21" value="&lt;font style=&quot;font-size: 14px;&quot;&gt;SimulationManager&lt;/font&gt;" style="swimlane;fontStyle=0;childLayout=stackLayout;horizontal=1;startSize=26;fillColor=none;horizontalStack=0;resizeParent=1;resizeParentMax=0;resizeLast=0;collapsible=1;marginBottom=0;whiteSpace=wrap;html=1;" parent="1" vertex="1">
          <mxGeometry x="120" y="510" width="130" height="50" as="geometry" />
        </mxCell>
        <mxCell id="kMy3-wZcHd9l3VL2baU1-22" value="&lt;font style=&quot;font-size: 14px;&quot;&gt;Generator&lt;/font&gt;" style="swimlane;fontStyle=0;childLayout=stackLayout;horizontal=1;startSize=26;fillColor=none;horizontalStack=0;resizeParent=1;resizeParentMax=0;resizeLast=0;collapsible=1;marginBottom=0;whiteSpace=wrap;html=1;" parent="1" vertex="1">
          <mxGeometry x="270" y="510" width="130" height="50" as="geometry" />
        </mxCell>
        <mxCell id="kMy3-wZcHd9l3VL2baU1-23" value="&lt;font style=&quot;font-size: 14px;&quot;&gt;Scheduler&lt;/font&gt;" style="swimlane;fontStyle=0;childLayout=stackLayout;horizontal=1;startSize=26;fillColor=none;horizontalStack=0;resizeParent=1;resizeParentMax=0;resizeLast=0;collapsible=1;marginBottom=0;whiteSpace=wrap;html=1;" parent="1" vertex="1">
          <mxGeometry x="415" y="510" width="130" height="50" as="geometry" />
        </mxCell>
        <mxCell id="kMy3-wZcHd9l3VL2baU1-24" value="&lt;font style=&quot;font-size: 14px;&quot;&gt;SimulationClock&lt;/font&gt;" style="swimlane;fontStyle=0;childLayout=stackLayout;horizontal=1;startSize=26;fillColor=none;horizontalStack=0;resizeParent=1;resizeParentMax=0;resizeLast=0;collapsible=1;marginBottom=0;whiteSpace=wrap;html=1;" parent="1" vertex="1">
          <mxGeometry x="50" y="580" width="130" height="50" as="geometry" />
        </mxCell>
        <mxCell id="kMy3-wZcHd9l3VL2baU1-25" value="&lt;font style=&quot;font-size: 14px;&quot;&gt;&lt;i&gt;Strategy&lt;/i&gt;&lt;/font&gt;" style="swimlane;fontStyle=0;childLayout=stackLayout;horizontal=1;startSize=26;fillColor=none;horizontalStack=0;resizeParent=1;resizeParentMax=0;resizeLast=0;collapsible=1;marginBottom=0;whiteSpace=wrap;html=1;" parent="1" vertex="1">
          <mxGeometry x="210" y="580" width="130" height="50" as="geometry" />
        </mxCell>
        <mxCell id="kMy3-wZcHd9l3VL2baU1-26" value="&lt;font style=&quot;font-size: 14px;&quot;&gt;EmptyQueueStrategy&lt;/font&gt;" style="swimlane;fontStyle=0;childLayout=stackLayout;horizontal=1;startSize=26;fillColor=none;horizontalStack=0;resizeParent=1;resizeParentMax=0;resizeLast=0;collapsible=1;marginBottom=0;whiteSpace=wrap;html=1;" parent="1" vertex="1">
          <mxGeometry x="360" y="580" width="160" height="50" as="geometry" />
        </mxCell>
        <mxCell id="kMy3-wZcHd9l3VL2baU1-27" value="&lt;span style=&quot;font-size: 14px;&quot;&gt;ShortestTimeStrategy&lt;/span&gt;" style="swimlane;fontStyle=0;childLayout=stackLayout;horizontal=1;startSize=26;fillColor=none;horizontalStack=0;resizeParent=1;resizeParentMax=0;resizeLast=0;collapsible=1;marginBottom=0;whiteSpace=wrap;html=1;" parent="1" vertex="1">
          <mxGeometry x="50" y="660" width="150" height="50" as="geometry" />
        </mxCell>
        <mxCell id="kMy3-wZcHd9l3VL2baU1-28" value="&lt;font style=&quot;font-size: 14px;&quot;&gt;&lt;i&gt;ClientCompletion&lt;/i&gt;&lt;/font&gt;" style="swimlane;fontStyle=0;childLayout=stackLayout;horizontal=1;startSize=26;fillColor=none;horizontalStack=0;resizeParent=1;resizeParentMax=0;resizeLast=0;collapsible=1;marginBottom=0;whiteSpace=wrap;html=1;" parent="1" vertex="1">
          <mxGeometry x="220" y="660" width="130" height="50" as="geometry" />
        </mxCell>
        <mxCell id="kMy3-wZcHd9l3VL2baU1-29" value="&lt;font style=&quot;font-size: 14px;&quot;&gt;&lt;i&gt;SimulationUpdate&lt;/i&gt;&lt;/font&gt;" style="swimlane;fontStyle=0;childLayout=stackLayout;horizontal=1;startSize=26;fillColor=none;horizontalStack=0;resizeParent=1;resizeParentMax=0;resizeLast=0;collapsible=1;marginBottom=0;whiteSpace=wrap;html=1;" parent="1" vertex="1">
          <mxGeometry x="380" y="660" width="130" height="50" as="geometry" />
        </mxCell>
        <mxCell id="kMy3-wZcHd9l3VL2baU1-30" value="&lt;font style=&quot;font-size: 13px;&quot;&gt;&amp;lt;&amp;lt;enum&amp;gt;&amp;gt;&lt;/font&gt;&lt;div&gt;&lt;font style=&quot;font-size: 13px;&quot;&gt;SelectionPolicy&lt;/font&gt;&lt;/div&gt;" style="swimlane;fontStyle=0;childLayout=stackLayout;horizontal=1;startSize=40;fillColor=none;horizontalStack=0;resizeParent=1;resizeParentMax=0;resizeLast=0;collapsible=1;marginBottom=0;whiteSpace=wrap;html=1;" parent="1" vertex="1">
          <mxGeometry x="190" y="730" width="140" height="50" as="geometry" />
        </mxCell>
        <mxCell id="kMy3-wZcHd9l3VL2baU1-31" value="" style="shape=folder;fontStyle=1;spacingTop=10;tabWidth=40;tabHeight=14;tabPosition=left;html=1;whiteSpace=wrap;" parent="1" vertex="1">
          <mxGeometry x="700" y="325" width="440" height="200" as="geometry" />
        </mxCell>
        <mxCell id="kMy3-wZcHd9l3VL2baU1-32" value="&lt;span style=&quot;font-size: 14px;&quot;&gt;&lt;b&gt;Model&lt;/b&gt;&lt;/span&gt;" style="text;html=1;align=center;verticalAlign=middle;whiteSpace=wrap;rounded=0;" parent="1" vertex="1">
          <mxGeometry x="650" y="340" width="180" height="30" as="geometry" />
        </mxCell>
        <mxCell id="kMy3-wZcHd9l3VL2baU1-33" value="&lt;font style=&quot;font-size: 14px;&quot;&gt;Client&lt;/font&gt;" style="swimlane;fontStyle=0;childLayout=stackLayout;horizontal=1;startSize=26;fillColor=none;horizontalStack=0;resizeParent=1;resizeParentMax=0;resizeLast=0;collapsible=1;marginBottom=0;whiteSpace=wrap;html=1;" parent="1" vertex="1">
          <mxGeometry x="770" y="410" width="140" height="52" as="geometry" />
        </mxCell>
        <mxCell id="kMy3-wZcHd9l3VL2baU1-34" value="&lt;font style=&quot;font-size: 14px;&quot;&gt;Server&lt;/font&gt;" style="swimlane;fontStyle=0;childLayout=stackLayout;horizontal=1;startSize=26;fillColor=none;horizontalStack=0;resizeParent=1;resizeParentMax=0;resizeLast=0;collapsible=1;marginBottom=0;whiteSpace=wrap;html=1;" parent="1" vertex="1">
          <mxGeometry x="950" y="410" width="140" height="52" as="geometry" />
        </mxCell>
        <mxCell id="kMy3-wZcHd9l3VL2baU1-35" style="edgeStyle=orthogonalEdgeStyle;rounded=0;orthogonalLoop=1;jettySize=auto;html=1;exitX=0.5;exitY=1;exitDx=0;exitDy=0;exitPerimeter=0;entryX=0.501;entryY=0.055;entryDx=0;entryDy=0;entryPerimeter=0;" parent="1" source="kMy3-wZcHd9l3VL2baU1-1" target="kMy3-wZcHd9l3VL2baU1-19" edge="1">
          <mxGeometry relative="1" as="geometry" />
        </mxCell>
        <mxCell id="kMy3-wZcHd9l3VL2baU1-36" style="edgeStyle=orthogonalEdgeStyle;rounded=0;orthogonalLoop=1;jettySize=auto;html=1;exitX=0;exitY=0;exitDx=520;exitDy=90.5;exitPerimeter=0;entryX=0;entryY=0;entryDx=0;entryDy=153.5;entryPerimeter=0;" parent="1" source="kMy3-wZcHd9l3VL2baU1-19" target="kMy3-wZcHd9l3VL2baU1-31" edge="1">
          <mxGeometry relative="1" as="geometry" />
        </mxCell>
      </root>
    </mxGraphModel>
  </diagram>
</mxfile>
